<svg xmlns="http://www.w3.org/2000/svg" viewBox="0 0 1024 1024" role="img" aria-label="Particle Model Studio">
  <defs>
    <linearGradient id="bg" x1="130" y1="80" x2="880" y2="940" gradientUnits="userSpaceOnUse">
      <stop stop-color="#1c242d"/>
      <stop offset="0.52" stop-color="#0d1117"/>
      <stop offset="1" stop-color="#07090c"/>
    </linearGradient>
    <linearGradient id="flow" x1="236" y1="722" x2="806" y2="270" gradientUnits="userSpaceOnUse">
      <stop stop-color="#ff7668"/>
      <stop offset="0.46" stop-color="#56eadf"/>
      <stop offset="1" stop-color="#f4da62"/>
    </linearGradient>
    <radialGradient id="halo" cx="0" cy="0" r="1" gradientTransform="translate(531 515) rotate(90) scale(390)">
      <stop stop-color="#4fe7dc" stop-opacity="0.22"/>
      <stop offset="1" stop-color="#4fe7dc" stop-opacity="0"/>
    </radialGradient>
    <filter id="glow" x="-35%" y="-35%" width="170%" height="170%">
      <feGaussianBlur stdDeviation="20"/>
    </filter>
  </defs>
  <rect x="36" y="36" width="952" height="952" rx="220" fill="url(#bg)"/>
  <rect x="53" y="53" width="918" height="918" rx="205" fill="none" stroke="#ffffff" stroke-opacity="0.08" stroke-width="3"/>
  <circle cx="531" cy="515" r="390" fill="url(#halo)"/>
  <path d="M232 677C319 779 492 802 637 745C792 684 848 522 778 390C708 258 530 203 388 277C263 342 229 493 307 596C382 696 543 710 644 626C733 552 721 420 629 363C551 314 442 340 398 416C357 486 389 579 466 612C526 638 598 606 619 550"
        fill="none" stroke="url(#flow)" stroke-opacity="0.26" stroke-width="82" stroke-linecap="round" filter="url(#glow)"/>
  <path d="M232 677C319 779 492 802 637 745C792 684 848 522 778 390C708 258 530 203 388 277C263 342 229 493 307 596C382 696 543 710 644 626C733 552 721 420 629 363C551 314 442 340 398 416C357 486 389 579 466 612C526 638 598 606 619 550"
        fill="none" stroke="url(#flow)" stroke-width="34" stroke-linecap="round"/>
  <path d="M259 716C382 800 548 802 690 718" fill="none" stroke="#ff786b" stroke-opacity="0.82" stroke-width="13" stroke-linecap="round"/>
  <path d="M741 320C817 421 823 545 758 649" fill="none" stroke="#f1db66" stroke-opacity="0.9" stroke-width="12" stroke-linecap="round"/>
  <circle cx="621" cy="548" r="43" fill="#0c1217" stroke="#62eee2" stroke-width="20"/>
  <circle cx="621" cy="548" r="10" fill="#f5dc64"/>
  <g fill="#72efe5">
    <circle cx="196" cy="625" r="13"/><circle cx="167" cy="584" r="8"/><circle cx="187" cy="738" r="7"/>
    <circle cx="280" cy="802" r="9"/><circle cx="735" cy="759" r="8"/><circle cx="831" cy="612" r="11"/>
  </g>
  <g fill="#ff786b">
    <circle cx="215" cy="751" r="10"/><circle cx="339" cy="840" r="7"/><circle cx="144" cy="660" r="6"/>
  </g>
  <g fill="#f3da64">
    <circle cx="824" cy="349" r="11"/><circle cx="855" cy="405" r="7"/><circle cx="772" cy="257" r="8"/>
  </g>
</svg>
